<svg width="167" height="181" viewBox="0 0 167 181" fill="none" xmlns="http://www.w3.org/2000/svg">
<g clip-path="url(#clip0_2_50)">
<path d="M83.15 177.23C60.89 176.99 40 167.9 24.32 151.62C8.64 135.34 0 113.74 0 90.82C0 67.89 8.64 46.3 24.32 30.01C40 13.74 60.89 4.65 83.15 4.41L83.22 11.2C40.97 11.65 6.6 47.37 6.6 90.82C6.6 134.27 40.97 169.99 83.22 170.44L83.15 177.23Z" fill="url(#paint0_linear_2_50)"/>
<path d="M114.81 73.48H75.11C73.29 73.48 71.81 71.96 71.81 70.09C71.81 68.22 73.29 66.7 75.11 66.7H111.51V30.65C111.51 28.78 112.99 27.26 114.81 27.26C116.63 27.26 118.11 28.78 118.11 30.65V70.09C118.11 71.96 116.63 73.48 114.81 73.48Z" fill="url(#paint1_linear_2_50)"/>
<path d="M153.33 89.21H63C61.18 89.21 59.7 87.69 59.7 85.82C59.7 83.95 61.18 82.43 63 82.43H150.03V69.73C150.03 67.86 151.51 66.34 153.33 66.34C155.15 66.34 156.63 67.86 156.63 69.73V85.82C156.63 87.69 155.16 89.21 153.33 89.21Z" fill="url(#paint2_linear_2_50)"/>
<path d="M150.89 104.94H61.2C59.38 104.94 57.9 103.42 57.9 101.55C57.9 99.68 59.38 98.16 61.2 98.16H150.89C152.71 98.16 154.19 99.68 154.19 101.55C154.19 103.42 152.72 104.94 150.89 104.94Z" fill="url(#paint3_linear_2_50)"/>
<path d="M132.67 143.49H119.18C117.36 143.49 115.88 141.97 115.88 140.1V121.35H74.21C72.39 121.35 70.91 119.83 70.91 117.96C70.91 116.09 72.39 114.57 74.21 114.57H119.18C121 114.57 122.48 116.09 122.48 117.96V136.71H132.67C134.49 136.71 135.97 138.23 135.97 140.1C135.97 141.97 134.49 143.49 132.67 143.49Z" fill="url(#paint4_linear_2_50)"/>
<path d="M91.04 173.42C91.04 175.71 89.23 177.57 87 177.57C84.77 177.57 82.96 175.71 82.96 173.42C82.96 171.13 84.77 169.27 87 169.27C89.23 169.26 91.04 171.12 91.04 173.42Z" fill="url(#paint5_linear_2_50)"/>
<path d="M87 180.96C82.95 180.96 79.66 177.57 79.66 173.41C79.66 169.25 82.95 165.86 87 165.86C91.05 165.86 94.34 169.25 94.34 173.41C94.34 177.58 91.04 180.96 87 180.96ZM87 172.66C86.59 172.66 86.26 173 86.26 173.42C86.26 173.84 86.59 174.18 87 174.18C87.41 174.18 87.74 173.84 87.74 173.42C87.74 173 87.4 172.66 87 172.66Z" fill="url(#paint6_linear_2_50)"/>
<path d="M91.04 7.55C91.04 9.84 89.23 11.7 87 11.7C84.77 11.7 82.96 9.84 82.96 7.55C82.96 5.26 84.77 3.4 87 3.4C89.23 3.39 91.04 5.25 91.04 7.55Z" fill="url(#paint7_linear_2_50)"/>
<path d="M87 15.09C82.95 15.09 79.66 11.71 79.66 7.54C79.66 3.39 82.95 0 87 0C91.05 0 94.34 3.39 94.34 7.55C94.34 11.71 91.04 15.09 87 15.09ZM87 6.79C86.59 6.79 86.26 7.13 86.26 7.55C86.26 7.97 86.59 8.3 87 8.3C87.41 8.3 87.74 7.96 87.74 7.54C87.74 7.12 87.4 6.79 87 6.79Z" fill="url(#paint8_linear_2_50)"/>
<path d="M41.87 110.25C40.36 110.25 38.67 109.97 36.78 109.29C26.51 105.58 16.41 91.99 15.25 85.08C14.81 82.44 13.09 81.7 8.64 80.38C7.12 79.93 5.55 79.46 4.03 78.78C2.36 78.03 1.6 76.03 2.33 74.31C3.06 72.59 5.01 71.81 6.68 72.56C7.8 73.06 9.1 73.45 10.47 73.86C14.73 75.12 20.57 76.85 21.76 83.93C22.51 88.39 30.95 99.98 38.97 102.89C42.15 104.04 43.86 103.24 44.87 102.4C44.69 100.65 41.53 96.15 39.61 93.41C35.46 87.5 31.88 82.4 33.31 77.91C33.76 76.5 34.9 74.62 37.78 73.66C42.17 72.2 44.93 72.38 46.76 72.5C48.49 72.61 48.96 72.65 52.2 67.44C56.64 60.31 64.89 58.4 70.92 57.01C73.11 56.5 76.36 55.75 77.18 55.03C77.09 53.13 75.19 50.6 72.5 48.82C69.77 47 65.6 45.64 62.1 47.26C55.11 50.51 48.98 48.17 46.77 44.32C45.23 41.63 45.37 37.61 49.16 34.68C51.75 32.69 53.41 29.54 53.59 28.13C53.25 28.11 52.68 28.12 51.79 28.31C46.13 29.47 40.13 28.97 35.33 26.93C33.65 26.21 32.84 24.23 33.54 22.5C34.24 20.77 36.17 19.94 37.85 20.66C41.42 22.18 46.15 22.55 50.5 21.66C56.64 20.4 58.87 23.23 59.66 25.03C61.8 29.94 57.24 36.95 53.13 40.12C52.62 40.51 52.45 40.82 52.44 40.89C52.46 40.9 52.69 41.25 53.37 41.57C53.95 41.84 56.11 42.61 59.4 41.08C64.42 38.75 70.67 39.51 76.1 43.12C80.85 46.27 83.8 50.89 83.8 55.17C83.8 60.99 77.74 62.39 72.38 63.63C66.93 64.89 60.74 66.32 57.77 71.1C53.19 78.44 50.9 79.58 46.34 79.27C44.78 79.16 43.01 79.05 39.82 80.11C39.73 80.14 39.66 80.17 39.6 80.19C39.76 82 43.12 86.79 44.96 89.42C49.59 96.01 54.37 102.82 49.48 107.26C47.83 108.78 45.33 110.25 41.87 110.25Z" fill="url(#paint9_linear_2_50)"/>
<path d="M35.86 160.95C35.17 160.95 34.47 160.73 33.87 160.26C30.45 157.6 24.91 150.28 28.45 141.66C31.09 135.24 35.16 132.3 38.43 129.94C39.99 128.81 41.34 127.84 42.35 126.65C43.4 125.4 44.23 123.09 45.03 120.85C46.57 116.55 48.49 111.2 53.67 111C57.59 110.88 60.32 114.34 63.48 118.39C66.49 122.24 69.9 126.6 74.48 128.32C76.22 128.97 78.31 129.14 80.32 129.31C82.96 129.53 85.7 129.75 87.94 131.11C89.51 132.06 90.03 134.14 89.11 135.76C88.18 137.38 86.16 137.91 84.59 136.96C83.65 136.39 81.69 136.23 79.79 136.08C77.45 135.89 74.81 135.67 72.22 134.7C65.9 132.34 61.7 126.97 58.33 122.65C56.89 120.81 54.71 118.02 53.8 117.78C53.14 117.82 51.78 121.59 51.21 123.2C50.2 126.01 49.16 128.92 47.31 131.1C45.78 132.92 43.96 134.23 42.2 135.49C39.22 137.64 36.41 139.67 34.51 144.29C32.06 150.25 37.77 154.79 37.83 154.83C39.28 155.96 39.57 158.09 38.47 159.58C37.84 160.49 36.85 160.95 35.86 160.95Z" fill="url(#paint10_linear_2_50)"/>
<path d="M67.61 34.86C65.79 34.86 64.31 33.34 64.31 31.47V20.37C64.31 18.5 65.79 16.98 67.61 16.98C69.43 16.98 70.91 18.5 70.91 20.37V31.47C70.91 33.34 69.44 34.86 67.61 34.86Z" fill="url(#paint11_linear_2_50)"/>
<path d="M76.97 39.94C75.15 39.94 73.67 38.42 73.67 36.55V20.37C73.67 18.5 75.15 16.98 76.97 16.98C78.79 16.98 80.27 18.5 80.27 20.37V36.55C80.27 38.42 78.79 39.94 76.97 39.94Z" fill="url(#paint12_linear_2_50)"/>
<path d="M86.77 48.65C84.95 48.65 83.47 47.13 83.47 45.26V20.37C83.47 18.5 84.95 16.98 86.77 16.98C88.59 16.98 90.07 18.5 90.07 20.37V45.26C90.07 47.13 88.6 48.65 86.77 48.65Z" fill="url(#paint13_linear_2_50)"/>
<path d="M80.79 147.59H65.12C63.3 147.59 61.82 146.07 61.82 144.2C61.82 142.33 63.3 140.81 65.12 140.81H80.8C82.62 140.81 84.1 142.33 84.1 144.2C84.09 146.07 82.61 147.59 80.79 147.59Z" fill="url(#paint14_linear_2_50)"/>
<path d="M88.66 156.6H75.57C73.75 156.6 72.27 155.08 72.27 153.21C72.27 151.34 73.75 149.82 75.57 149.82H88.66C90.48 149.82 91.96 151.34 91.96 153.21C91.96 155.08 90.48 156.6 88.66 156.6Z" fill="url(#paint15_linear_2_50)"/>
<path d="M79.86 165.61H66.77C64.95 165.61 63.47 164.09 63.47 162.22C63.47 160.35 64.95 158.83 66.77 158.83H79.86C81.68 158.83 83.16 160.35 83.16 162.22C83.16 164.09 81.68 165.61 79.86 165.61Z" fill="url(#paint16_linear_2_50)"/>
<path d="M114.94 31.5C109.98 31.5 105.95 27.35 105.95 22.26C105.95 17.17 109.98 13.02 114.94 13.02C119.9 13.02 123.93 17.17 123.93 22.26C123.93 27.35 119.89 31.5 114.94 31.5ZM114.94 18.88C113.13 18.88 111.66 20.39 111.66 22.25C111.66 24.11 113.13 25.62 114.94 25.62C116.75 25.62 118.22 24.11 118.22 22.25C118.22 20.39 116.75 18.88 114.94 18.88Z" fill="url(#paint17_linear_2_50)"/>
<path d="M153.44 69.68C148.48 69.68 144.45 65.53 144.45 60.44C144.45 55.35 148.48 51.2 153.44 51.2C158.4 51.2 162.43 55.35 162.43 60.44C162.43 65.53 158.39 69.68 153.44 69.68ZM153.44 57.06C151.63 57.06 150.16 58.57 150.16 60.43C150.16 62.29 151.63 63.8 153.44 63.8C155.25 63.8 156.72 62.29 156.72 60.43C156.72 58.57 155.25 57.06 153.44 57.06Z" fill="url(#paint18_linear_2_50)"/>
<path d="M157.63 111.11C152.67 111.11 148.64 106.96 148.64 101.87C148.64 96.78 152.67 92.63 157.63 92.63C162.59 92.63 166.62 96.78 166.62 101.87C166.62 106.96 162.59 111.11 157.63 111.11ZM157.63 98.49C155.82 98.49 154.35 100 154.35 101.86C154.35 103.72 155.82 105.23 157.63 105.23C159.44 105.23 160.91 103.72 160.91 101.86C160.91 100 159.44 98.49 157.63 98.49Z" fill="url(#paint19_linear_2_50)"/>
<path d="M139.57 148.82C134.61 148.82 130.58 144.67 130.58 139.58C130.58 134.48 134.61 130.34 139.57 130.34C144.53 130.34 148.56 134.49 148.56 139.58C148.56 144.67 144.53 148.82 139.57 148.82ZM139.57 136.2C137.76 136.2 136.29 137.71 136.29 139.57C136.29 141.43 137.76 142.94 139.57 142.94C141.38 142.94 142.85 141.43 142.85 139.57C142.85 137.72 141.38 136.2 139.57 136.2Z" fill="url(#paint20_linear_2_50)"/>
</g>
<defs>
<linearGradient id="paint0_linear_2_50" x1="0" y1="90.818" x2="83.2204" y2="90.818" gradientUnits="userSpaceOnUse">
<stop stop-color="#5865A7"/>
<stop offset="1" stop-color="#69C4D4"/>
</linearGradient>
<linearGradient id="paint1_linear_2_50" x1="71.8109" y1="50.3679" x2="118.112" y2="50.3679" gradientUnits="userSpaceOnUse">
<stop stop-color="#5865A7"/>
<stop offset="1" stop-color="#69C4D4"/>
</linearGradient>
<linearGradient id="paint2_linear_2_50" x1="59.6988" y1="77.7749" x2="156.634" y2="77.7749" gradientUnits="userSpaceOnUse">
<stop stop-color="#5865A7"/>
<stop offset="1" stop-color="#69C4D4"/>
</linearGradient>
<linearGradient id="paint3_linear_2_50" x1="57.9043" y1="101.549" x2="154.195" y2="101.549" gradientUnits="userSpaceOnUse">
<stop stop-color="#5865A7"/>
<stop offset="1" stop-color="#69C4D4"/>
</linearGradient>
<linearGradient id="paint4_linear_2_50" x1="70.9139" y1="129.021" x2="135.971" y2="129.021" gradientUnits="userSpaceOnUse">
<stop stop-color="#5865A7"/>
<stop offset="1" stop-color="#69C4D4"/>
</linearGradient>
<linearGradient id="paint5_linear_2_50" x1="82.9612" y1="173.416" x2="91.0359" y2="173.416" gradientUnits="userSpaceOnUse">
<stop stop-color="#5865A7"/>
<stop offset="1" stop-color="#69C4D4"/>
</linearGradient>
<linearGradient id="paint6_linear_2_50" x1="79.6614" y1="173.416" x2="94.3356" y2="173.416" gradientUnits="userSpaceOnUse">
<stop stop-color="#5865A7"/>
<stop offset="1" stop-color="#69C4D4"/>
</linearGradient>
<linearGradient id="paint7_linear_2_50" x1="82.9612" y1="7.5461" x2="91.0359" y2="7.5461" gradientUnits="userSpaceOnUse">
<stop stop-color="#5865A7"/>
<stop offset="1" stop-color="#69C4D4"/>
</linearGradient>
<linearGradient id="paint8_linear_2_50" x1="79.6614" y1="7.5461" x2="94.3356" y2="7.5461" gradientUnits="userSpaceOnUse">
<stop stop-color="#5865A7"/>
<stop offset="1" stop-color="#69C4D4"/>
</linearGradient>
<linearGradient id="paint9_linear_2_50" x1="2.0542" y1="65.3272" x2="83.793" y2="65.3272" gradientUnits="userSpaceOnUse">
<stop stop-color="#5865A7"/>
<stop offset="1" stop-color="#69C4D4"/>
</linearGradient>
<linearGradient id="paint10_linear_2_50" x1="27.3114" y1="135.981" x2="89.5794" y2="135.981" gradientUnits="userSpaceOnUse">
<stop stop-color="#5865A7"/>
<stop offset="1" stop-color="#69C4D4"/>
</linearGradient>
<linearGradient id="paint11_linear_2_50" x1="64.3137" y1="25.9156" x2="70.9139" y2="25.9156" gradientUnits="userSpaceOnUse">
<stop stop-color="#5865A7"/>
<stop offset="1" stop-color="#69C4D4"/>
</linearGradient>
<linearGradient id="paint12_linear_2_50" x1="73.6693" y1="28.4579" x2="80.2694" y2="28.4579" gradientUnits="userSpaceOnUse">
<stop stop-color="#5865A7"/>
<stop offset="1" stop-color="#69C4D4"/>
</linearGradient>
<linearGradient id="paint13_linear_2_50" x1="83.4739" y1="32.8115" x2="90.0741" y2="32.8115" gradientUnits="userSpaceOnUse">
<stop stop-color="#5865A7"/>
<stop offset="1" stop-color="#69C4D4"/>
</linearGradient>
<linearGradient id="paint14_linear_2_50" x1="61.8151" y1="144.2" x2="84.0905" y2="144.2" gradientUnits="userSpaceOnUse">
<stop stop-color="#5865A7"/>
<stop offset="1" stop-color="#69C4D4"/>
</linearGradient>
<linearGradient id="paint15_linear_2_50" x1="72.2653" y1="153.21" x2="91.9593" y2="153.21" gradientUnits="userSpaceOnUse">
<stop stop-color="#5865A7"/>
<stop offset="1" stop-color="#69C4D4"/>
</linearGradient>
<linearGradient id="paint16_linear_2_50" x1="63.4651" y1="162.22" x2="83.1592" y2="162.22" gradientUnits="userSpaceOnUse">
<stop stop-color="#5865A7"/>
<stop offset="1" stop-color="#69C4D4"/>
</linearGradient>
<linearGradient id="paint17_linear_2_50" x1="105.949" y1="22.2528" x2="123.925" y2="22.2528" gradientUnits="userSpaceOnUse">
<stop stop-color="#5865A7"/>
<stop offset="1" stop-color="#69C4D4"/>
</linearGradient>
<linearGradient id="paint18_linear_2_50" x1="144.45" y1="60.4334" x2="162.425" y2="60.4334" gradientUnits="userSpaceOnUse">
<stop stop-color="#5865A7"/>
<stop offset="1" stop-color="#69C4D4"/>
</linearGradient>
<linearGradient id="paint19_linear_2_50" x1="148.644" y1="101.866" x2="166.619" y2="101.866" gradientUnits="userSpaceOnUse">
<stop stop-color="#5865A7"/>
<stop offset="1" stop-color="#69C4D4"/>
</linearGradient>
<linearGradient id="paint20_linear_2_50" x1="130.585" y1="139.576" x2="148.561" y2="139.576" gradientUnits="userSpaceOnUse">
<stop stop-color="#5865A7"/>
<stop offset="1" stop-color="#69C4D4"/>
</linearGradient>
<clipPath id="clip0_2_50">
<rect width="166.62" height="180.96" fill="white"/>
</clipPath>
</defs>
</svg>
